<!-- Generator: Adobe Illustrator 24.0.1, SVG Export Plug-In  -->
<svg version="1.1" xmlns="http://www.w3.org/2000/svg" xmlns:xlink="http://www.w3.org/1999/xlink" x="0px" y="0px" width="30px"
	 height="30px" viewBox="0 0 30 30" style="enable-background:new 0 0 30 30;" xml:space="preserve">
<defs>
<style>
.st0{fill: #515151}
</style>
</defs>
<g>
	<path class="st0" d="M27,6h-6c-1.66,0-3-1.34-3-3v0c0-1.66,1.34-3,3-3l6,0c1.66,0,3,1.34,3,3v0C30,4.66,28.66,6,27,6z"/>
</g>
<g>
	<path class="st0" d="M21,18H3c-1.66,0-3-1.34-3-3v0c0-1.66,1.34-3,3-3h18c1.66,0,3,1.34,3,3v0C24,16.66,22.66,18,21,18z"/>
</g>
<g>
	<path class="st0" d="M7,30H6c-1.66,0-3-1.34-3-3v0c0-1.66,1.34-3,3-3h1c1.66,0,3,1.34,3,3v0C10,28.66,8.66,30,7,30z"/>
</g>
<g>
	<path class="st0" d="M18,30h-1c-1.66,0-3-1.34-3-3v0c0-1.66,1.34-3,3-3h1c1.66,0,3,1.34,3,3v0C21,28.66,19.66,30,18,30z"/>
</g>
</svg>
