<!-- Generator: Adobe Illustrator 24.0.1, SVG Export Plug-In  -->
<svg version="1.1" xmlns="http://www.w3.org/2000/svg" xmlns:xlink="http://www.w3.org/1999/xlink" x="0px" y="0px" width="30px"
	 height="30px" viewBox="0 0 30 30" style="enable-background:new 0 0 30 30;" xml:space="preserve">
<style type="text/css">
	.st0{fill:#515151;}
</style>
<defs>
</defs>
<g>
	<path class="st0" d="M17,6H3C1.34,6,0,4.66,0,3v0c0-1.66,1.34-3,3-3l14,0c1.66,0,3,1.34,3,3v0C20,4.66,18.66,6,17,6z"/>
</g>
<g>
	<path class="st0" d="M27,18H3c-1.66,0-3-1.34-3-3v0c0-1.66,1.34-3,3-3h24c1.66,0,3,1.34,3,3v0C30,16.66,28.66,18,27,18z"/>
</g>
<g>
	<path class="st0" d="M27,30H13c-1.66,0-3-1.34-3-3v0c0-1.66,1.34-3,3-3h14c1.66,0,3,1.34,3,3v0C30,28.66,28.66,30,27,30z"/>
</g>
</svg>
